<?xml version="1.0" encoding="UTF-8"?>
<svg width="40px" height="48px" viewBox="0 0 40 48" version="1.1" xmlns="http://www.w3.org/2000/svg" xmlns:xlink="http://www.w3.org/1999/xlink">
    <!-- Generator: Sketch 46.2 (44496) - http://www.bohemiancoding.com/sketch -->
    <title>Shape</title>
    <desc>Created with Sketch.</desc>
    <defs></defs>
    <g id="front-1024" stroke="none" stroke-width="1" fill="none" fill-rule="evenodd" fill-opacity="0.799999952">
        <g id="1.-Каталог---load" transform="translate(-492.000000, -1006.000000)" fill="#4DAAF6">
            <path d="M499.54717,1024.86792 L496.025157,1021.34591 C493.761006,1024.36478 492.251572,1027.63522 492,1031.15723 L497.031447,1031.15723 C497.283019,1028.89308 498.289308,1026.8805 499.54717,1024.86792 L499.54717,1024.86792 Z M497.031447,1036.18868 L492,1036.18868 C492.503145,1039.71069 493.761006,1042.98113 496.025157,1046 L499.54717,1042.47799 C498.289308,1040.46541 497.283019,1038.45283 497.031447,1036.18868 L497.031447,1036.18868 Z M499.54717,1049.52201 C502.566038,1051.78616 505.836478,1053.04403 509.358491,1053.54717 L509.358491,1048.51572 C507.09434,1048.26415 505.081761,1047.25786 503.069182,1046 L499.54717,1049.52201 L499.54717,1049.52201 Z M514.389937,1013.79874 L514.389937,1006 L503.069182,1017.32075 L514.389937,1028.64151 L514.389937,1018.83019 C521.433962,1020.08805 526.968553,1026.12579 526.968553,1033.67296 C526.968553,1041.22013 521.433962,1047.25786 514.389937,1048.51572 L514.389937,1053.54717 C524.201258,1052.28931 532,1043.73585 532,1033.67296 C532,1023.61006 524.201258,1015.0566 514.389937,1013.79874 L514.389937,1013.79874 Z" id="Shape"></path>
        </g>
    </g>
</svg>